<?xml version="1.0" standalone="no"?>
<!DOCTYPE svg PUBLIC "-//W3C//DTD SVG 20010904//EN" "http://www.w3.org/TR/2001/REC-SVG-20010904/DTD/svg10.dtd">
<svg version="1.0" xmlns="http://www.w3.org/2000/svg" width="300.000000pt" height="300.000000pt" viewBox="0 0 300.000000 300.000000" preserveAspectRatio="xMidYMid meet">
	<metadata>
		Created by potrace 1.10, written by Peter Selinger 2001-2011
	</metadata>
	<g transform="translate(0.000000,300.000000) scale(0.050000,-0.050000)" fill="rgba(230, 135, 41, 1)" stroke="none">
		<path d="M2850 5591 c-50 -22 -2626 -2087 -2765 -2216 -62 -57 -57 -80 37
-206 114 -150 138 -142 463 145 41 36 84 66 95 66 13 0 20 -505 20 -1468 0
-1368 2 -1470 35 -1510 l35 -43 2230 0 c2224 1 2230 1 2264 42 56 67 58 151
52 1594 -3 762 0 1385 7 1385 7 0 98 -72 203 -160 221 -185 241 -189 336 -75
151 180 171 145 -298 515 l-241 190 -1 516 c-2 610 2 594 -169 594 -178 0
-173 11 -173 -434 0 -379 -7 -420 -63 -353 -15 18 -256 218 -537 444 -280 226
-668 538 -861 693 -192 156 -372 289 -400 296 -79 22 -204 15 -269 -15z m1156
-1141 l971 -780 2 -1495 1 -1495 -580 0 -580 0 0 928 c0 1003 2 980 -81 1023
-84 43 -1394 43 -1478 0 -83 -43 -81 -20 -81 -1023 l0 -928 -580 0 -580 0 1
1495 1 1495 134 104 c74 58 512 410 974 785 462 374 854 678 872 675 18 -2
470 -355 1004 -784z m1121 -343 c7 -8 -1 -35 -17 -60 -36 -55 -17 -64 23 -12
24 31 25 29 8 -19 -10 -29 -12 -56 -2 -60 9 -3 23 -36 31 -74 11 -51 8 -63
-11 -51 -16 10 -20 7 -11 -8 8 -13 22 -19 31 -14 23 15 67 -43 52 -68 -8 -12
-4 -21 8 -21 11 0 21 -13 21 -30 0 -16 11 -28 25 -25 14 3 23 -6 20 -20 -3
-14 14 -25 37 -25 30 0 39 -9 30 -31 -6 -18 -3 -26 8 -19 11 7 20 2 20 -12 0
-13 16 -35 35 -49 30 -22 28 -24 -19 -15 -73 14 -210 -32 -173 -58 20 -14 15
-17 -18 -10 -25 6 -45 1 -45 -11 0 -12 -6 -16 -13 -8 -12 11 -19 82 -25 259
-1 32 -11 51 -22 44 -11 -7 -20 -4 -20 7 0 11 -22 46 -49 79 -28 32 -43 66
-35 74 8 9 4 11 -8 4 -25 -14 -74 34 -95 92 -7 20 -22 31 -33 24 -11 -7 -20
-3 -20 9 0 11 19 21 41 21 23 0 36 -9 29 -20 -7 -11 -3 -20 9 -20 11 0 21 9
21 20 0 10 23 25 52 32 34 9 43 18 28 28 -18 11 -14 21 13 37 44 26 56 27 74
10z m-4239 -399 c6 -16 1 -28 -10 -28 -11 0 -15 -9 -8 -20 7 -11 5 -20 -5 -20
-10 0 -16 -49 -14 -108 2 -91 -3 -111 -34 -119 -20 -5 -37 -1 -37 10 0 11 -10
13 -23 5 -14 -9 -18 -5 -9 9 9 14 0 23 -22 23 -30 1 -31 4 -6 20 17 11 21 20
9 20 -11 0 -37 28 -58 63 -20 35 -27 57 -15 49 12 -7 32 5 44 27 12 23 35 41
51 41 16 0 29 12 29 28 0 15 21 27 49 27 27 0 53 -12 59 -27z m-231 -155 c17
-20 15 -26 -6 -26 -16 0 -24 9 -19 21 6 12 -2 6 -18 -13 -37 -45 -45 -44 -49
5 -3 47 57 55 92 13z m2843 -2043 l0 -830 -500 0 -500 0 0 830 0 830 500 0
500 0 0 -830z m-1140 -882 c0 -16 11 -26 25 -23 14 3 25 -8 25 -25 0 -16 14
-36 30 -44 18 -8 1 -14 -40 -14 -52 -1 -62 4 -40 18 18 12 20 20 6 20 -13 0
-29 -9 -36 -20 -7 -11 -37 -20 -66 -20 -39 1 -46 5 -26 18 15 10 22 32 15 50
-10 27 -5 29 25 13 48 -26 75 29 37 77 -22 28 -21 29 10 5 19 -16 35 -40 35
-55z m1334 -6 c-15 -18 -15 -25 -2 -16 12 7 37 2 55 -12 29 -21 24 -24 -32
-22 -75 2 -111 79 -37 79 33 0 35 -5 16 -29z" />
	</g>
</svg>
